HIERARCHY
ROOT Hips
{
	OFFSET 0.000000 0.000000 0.000000 
	CHANNELS 6 Xposition Yposition Zposition Yrotation Zrotation Xrotation 
	JOINT Lumbar
	{
		OFFSET 0.000000 0.000000 0.000000 
		CHANNELS 3 Zrotation Xrotation Yrotation
		JOINT Neck
		{
			OFFSET 0.000000 0.445665 0.000000 
			CHANNELS 3 Zrotation Xrotation Yrotation
			End Site
			{
				OFFSET 0.000000 0.227535 0.000000 
			}
		}
		JOINT RightShoulder
		{
			OFFSET 0.019635 0.377685 0.194865 
			CHANNELS 3 Zrotation Xrotation Yrotation
			JOINT RightElbow
			{
				OFFSET 0.000000 -0.243375 0.000000 
				CHANNELS 2 Zrotation Yrotation
				JOINT RightWrist
				{
					OFFSET 0.000000 -0.264825 0.000000 
					CHANNELS 2 Zrotation Xrotation
					End Site
					{
						OFFSET 0.006600 -0.176220 0.000990 
					}
				}
			}
		}
		JOINT LeftShoulder
		{
			OFFSET 0.019635 0.377685 -0.194865 
			CHANNELS 3 Zrotation Xrotation Yrotation
			JOINT LeftElbow
			{
				OFFSET 0.000000 -0.243375 0.000000 
				CHANNELS 2 Zrotation Yrotation
				JOINT LeftWrist
				{
					OFFSET 0.000000 -0.264825 0.000000 
					CHANNELS 2 Zrotation Xrotation
					End Site
					{
						OFFSET 0.006600 -0.176220 -0.000990 
					}
				}
			}
		}
	}
	JOINT RightHip
	{
		OFFSET 0.052140 -0.069960 0.075570 
		CHANNELS 3 Zrotation Xrotation Yrotation
		JOINT RightKnee
		{
			OFFSET 0.000000 -0.402270 0.000000 
			CHANNELS 1 Zrotation
			JOINT RightAnkle
			{
				OFFSET 0.000000 -0.404085 0.000000 
				CHANNELS 3 Zrotation Xrotation Yrotation
				End Site
				{
					OFFSET 0.204105 -0.089430 0.008415 
				}
			}
		}
	}
	JOINT LeftHip
	{
		OFFSET 0.052140 -0.069960 -0.075570 
		CHANNELS 3 Zrotation Xrotation Yrotation
		JOINT LeftKnee
		{
			OFFSET 0.000000 -0.402270 0.000000 
			CHANNELS 1 Zrotation
			JOINT LeftAnkle
			{
				OFFSET 0.000000 -0.404085 0.000000 
				CHANNELS 3 Zrotation Xrotation Yrotation
				End Site
				{
					OFFSET 0.204105 -0.089430 -0.008415 
				}
			}
		}
	}
}
MOTION
Frames: 30
Frame Time: 0.02
-0.10655 -0.18718 0.6026 48.96608 -18.77543 -4.14828 43.31625 10.60374 24.74889 3.09707 1.26303 -2.11994 96.25554 4.98867 53.96995 39.04565 133.14638 -50.85027 -9.5846 96.16704 39.86191 -47.73018 63.02666 -23.0626 26.13018 14.76656 55.68887 -10.13008 -18.07167 -70.29799 -5.6504 -3.3804 -3.82345 68.23512 23.88527 -5.59831 -37.15548 -17.01533 3.30685 4.39383
-0.10581 -0.18719 0.60132 49.04842 -18.73585 -4.10537 43.42457 10.57302 24.89032 3.39956 0.6284 -2.11994 96.45194 5.01451 54.28353 39.00933 133.13893 -50.79369 -9.57888 95.41815 39.5198 -46.33161 63.26354 -36.4026 18.21676 13.89595 55.55699 -10.10294 -17.91295 -70.31535 -5.66188 -3.3949 -3.83102 68.19565 23.74187 -5.83103 -37.31504 -17.03544 3.2978 4.39048
-0.10497 -0.18716 0.60008 49.15356 -18.67224 -4.07188 43.53634 10.50981 25.01443 3.66326 0.09301 -2.11994 96.60793 5.04279 54.62328 38.98159 133.1485 -50.76913 -9.60081 94.4871 39.0413 -44.62502 63.55368 -53.55326 8.06213 12.76526 55.38902 -10.04478 -17.74174 -70.31871 -5.67723 -3.41443 -3.8408 68.12486 23.55961 -6.16392 -37.45489 -17.05743 3.29028 4.38821
-0.10418 -0.18715 0.59884 49.24815 -18.61872 -4.03536 43.64459 10.4603 25.14585 3.94112 -0.48269 -2.11994 96.77981 5.07256 54.94194 38.95493 133.1517 -50.73345 -9.6117 93.68519 38.65701 -43.16151 63.82158 -68.62072 -0.88549 11.78367 55.23448 -10.00579 -17.58726 -70.32699 -5.6901 -3.43075 -3.84913 68.06832 23.40467 -6.42656 -37.60134 -17.07666 3.28176 4.38517
-0.10337 -0.18714 0.59753 49.34389 -18.56794 -3.99386 43.76177 10.41475 25.27979 4.23168 -1.07901 -2.11994 96.96118 5.09114 55.30133 38.90749 133.14938 -50.68347 -9.61602 92.68149 38.13274 -41.25421 64.08223 -85.24178 -10.66135 10.66273 55.09018 -9.94634 -17.38862 -70.34049 -5.70587 -3.45079 -3.85928 68.01094 23.2107 -6.78906 -37.75788 -17.10351 3.27444 4.38325
-0.10258 -0.18711 0.59636 49.44258 -18.5061 -3.96504 43.86079 10.35347 25.40423 4.48689 -1.60802 -2.11994 97.11353 5.1331 55.58129 38.90524 133.16214 -50.67064 -9.64012 92.05387 37.8649 -40.19194 64.36858 -99.49726 -19.22402 9.7728 54.91752 -9.92019 -17.27594 -70.34012 -5.71672 -3.46453 -3.86628 67.94822 23.08734 -6.97162 -37.88846 -17.11525 3.26507 4.3793
-0.10187 -0.18704 0.59553 49.54346 -18.41869 -3.96668 43.90997 10.25611 25.50739 4.65881 -1.98361 -2.11994 97.19525 5.24584 55.63531 39.02727 133.21694 -50.75403 -9.71864 92.55087 38.39139 -41.65675 64.73347 -106.38212 -23.98444 9.59543 54.66688 -10.01396 -17.4309 -70.30492 -5.71099 -3.45723 -3.86279 67.87774 23.17834 -6.60115 -37.95457 -17.08297 3.24905 4.36907
-0.10119 -0.18694 0.59484 49.64673 -18.32115 -3.98116 43.94031 10.14409 25.60135 4.79566 -2.29357 -2.11994 97.24901 5.38049 55.60748 39.19494 133.28567 -50.87293 -9.81515 93.42673 39.17217 -43.96386 65.11889 -110.72866 -27.42549 9.65892 54.39047 -10.13916 -17.66857 -70.25639 -5.7005 -3.44381 -3.85624 67.80318 23.33982 -6.05194 -37.99472 -17.03575 3.23103 4.35683
-0.1005 -0.18686 0.5941 49.74887 -18.22906 -3.99113 43.97866 10.03935 25.6992 4.94613 -2.62807 -2.11994 97.3164 5.50123 55.61797 39.3397 133.34485 -50.97522 -9.89899 94.10273 39.80295 -45.80988 65.48126 -116.16686 -31.40387 9.60623 54.13199 -10.23611 -17.84939 -70.21406 -5.69356 -3.43483 -3.85194 67.73109 23.4624 -5.60599 -38.04529 -16.99673 3.21434 4.3458
-0.09979 -0.18678 0.59331 49.85125 -18.13296 -3.99566 44.02012 9.93131 25.7981 5.10619 -2.98075 -2.11994 97.3799 5.64031 55.62783 39.49078 133.41754 -51.08266 -10.00203 94.88724 40.57367 -47.97314 65.90251 -122 -35.72285 9.57238 53.8471 -10.38886 -18.10754 -70.17056 -5.68107 -3.41925 -3.84423 67.65542 23.61252 -5.0719 -38.10133 -16.9521 3.19594 4.33357
-0.09914 -0.18668 0.59265 49.95436 -18.0426 -4.01464 44.04974 9.82654 25.89229 5.23698 -3.28211 -2.11994 97.44359 5.74439 55.61524 39.64335 133.466 -51.18485 -10.06991 95.5404 41.11576 -49.68252 66.20643 -126.35842 -38.99097 9.56028 53.61018 -10.43583 -18.22891 -70.1266 -5.67872 -3.41562 -3.8427 67.58649 23.72268 -4.67588 -38.13965 -16.91523 3.18057 4.32332
-0.09865 -0.18657 0.59227 50.05054 -17.97523 -4.06882 44.05832 9.73923 25.98047 5.30791 -3.45123 -2.11994 97.53056 5.76277 55.59518 39.7555 133.4355 -51.2845 -10.02798 95.72008 40.95967 -49.9108 66.17187 -127.23658 -39.65607 9.54801 53.52429 -10.16055 -17.91349 -70.08404 -5.70758 -3.44882 -3.86021 67.53869 23.70396 -4.71971 -38.13895 -16.90633 3.17435 4.31935
-0.09822 -0.18644 0.59201 50.14889 -17.91328 -4.13745 44.05423 9.65495 26.06336 5.34824 -3.57281 -2.11994 97.61607 5.7417 55.54916 39.87401 133.38069 -51.37303 -9.95122 95.75888 40.56641 -49.65891 66.02039 -126.70353 -39.30183 9.55092 53.48558 -9.78174 -17.46461 -70.04166 -5.74642 -3.49382 -3.88381 67.4978 23.64309 -4.90531 -38.1207 -16.90518 3.17114 4.31735
-0.09778 -0.18632 0.59171 50.25151 -17.84587 -4.20028 44.05139 9.56629 26.14569 5.39497 -3.72082 -2.11994 97.69186 5.72849 55.4918 40.01116 133.34381 -51.45371 -9.89598 95.87491 40.28531 -49.64268 65.92787 -126.81712 -39.41921 9.549 53.41723 -9.46564 -17.10269 -69.99964 -5.77929 -3.53182 -3.90376 67.45273 23.60244 -5.01585 -38.10836 -16.89861 3.16637 4.31426
-0.0973 -0.18618 0.59135 50.33173 -17.79059 -4.25987 44.06722 9.48986 26.24043 5.47313 -3.84564 -2.11994 97.8099 5.76023 55.52773 40.05804 133.28231 -51.59256 -9.81827 95.94803 39.99401 -49.58193 65.80991 -126.82517 -39.45848 9.54641 53.38203 -9.08591 -16.63366 -69.95529 -5.81796 -3.57641 -3.92725 67.41137 23.55943 -5.16541 -38.1041 -16.89965 3.16247 4.31202
-0.0969 -0.18609 0.59115 50.45946 -17.71164 -4.33003 44.04105 9.38877 26.3079 5.47778 -4.00893 -2.11994 97.84071 5.6866 55.36618 40.29506 133.26121 -51.6041 -9.77775 96.0725 39.66499 -49.48899 65.7189 -126.7468 -39.43301 9.54594 53.28999 -8.81198 -16.35362 -69.91602 -5.84713 -3.61031 -3.94494 67.3646 23.51081 -5.26931 -38.07884 -16.88671 3.15733 4.30841
-0.09666 -0.18612 0.59131 50.7144 -17.56485 -4.42106 43.90495 9.22001 26.30408 5.29785 -4.2852 -2.11994 97.62527 5.34993 54.64979 41.04381 133.40084 -51.29409 -9.85783 96.36872 39.28316 -49.42041 65.71317 -126.81227 -39.49957 9.54507 53.02415 -8.87038 -16.63935 -69.8906 -5.84641 -3.61055 -3.94441 67.29584 23.4533 -5.21729 -38.0027 -16.83486 3.14964 4.30142
-0.09649 -0.1862 0.59163 51.01747 -17.39439 -4.52306 43.72662 9.02624 26.27272 5.04321 -4.60287 -2.11994 97.32373 4.90552 53.73937 41.98467 133.57459 -50.85206 -9.97478 96.72042 38.87161 -49.3325 65.74143 -126.84478 -39.53827 9.54511 52.70069 -9.03588 -17.11741 -69.87032 -5.83604 -3.59989 -3.93799 67.22235 23.39194 -5.11504 -37.90559 -16.76859 3.14035 4.29286
-0.09629 -0.18627 0.59191 51.30107 -17.23549 -4.62312 43.56574 8.84318 26.25201 4.81568 -4.90541 -2.11994 97.06495 4.49774 52.928 42.84627 133.70331 -50.45116 -10.0685 97.04785 38.47669 -49.25214 65.76613 -126.88055 -39.58247 9.54521 52.40708 -9.14246 -17.49957 -69.84788 -5.83093 -3.5951 -3.93477 67.15462 23.3345 -5.03271 -37.81639 -16.7078 3.13066 4.28439
-0.0961 -0.18631 0.5921 51.57561 -17.07309 -4.71081 43.41156 8.6628 26.23823 4.61562 -5.19154 -2.11994 96.78901 4.13876 52.06786 43.67815 133.95267 -50.12551 -10.18804 97.36676 38.06018 -49.16119 65.7381 -126.91545 -39.62169 9.54397 52.09923 -9.28878 -17.91284 -69.82486 -5.82252 -3.5869 -3.92956 67.0721 23.26659 -4.96494 -37.73356 -16.65129 3.12564 4.27847
-0.09589 -0.18641 0.59249 51.87915 -16.91268 -4.82671 43.23379 8.47109 26.20447 4.34144 -5.52124 -2.11994 96.53061 3.65547 51.26597 44.61245 133.96317 -49.61697 -10.2634 97.7182 37.68498 -49.09336 65.82758 -126.96245 -39.67667 9.54553 51.80723 -9.37905 -18.30892 -69.80406 -5.8185 -3.58299 -3.92698 67.01892 23.21994 -4.8563 -37.63251 -16.58296 3.11071 4.26701
-0.09562 -0.18664 0.5934 52.26178 -16.76043 -5.01763 42.99949 8.25234 26.11448 3.87747 -5.97048 -2.11994 96.32209 2.83507 50.65201 45.8258 133.27107 -48.59234 -10.2045 98.14737 37.42915 -49.09935 66.24999 -127.06634 -39.80137 9.55391 51.56886 -9.28898 -18.60933 -69.78973 -5.82947 -3.59409 -3.93343 67.05005 23.23453 -4.61896 -37.48804 -16.48017 3.06669 4.23933
-0.09533 -0.18692 0.59451 52.66978 -16.61166 -5.23652 42.74339 8.02342 26.00677 3.34247 -6.46047 -2.11994 96.13753 1.89753 50.10725 47.12768 132.34388 -47.39649 -10.1006 98.60764 37.21746 -49.13068 66.78675 -127.18811 -39.94491 9.56508 51.34903 -9.13913 -18.88666 -69.77701 -5.84506 -3.60973 -3.94264 67.11039 23.27063 -4.34672 -37.32561 -16.36695 3.01313 4.20636
-0.09504 -0.18718 0.59553 53.05922 -16.46322 -5.44263 42.49834 7.80029 25.91238 2.84208 -6.92613 -2.11994 95.95533 1.02671 49.54442 48.36035 131.54733 -46.30729 -10.01965 99.05353 36.98802 -49.14919 67.26097 -127.29891 -40.0719 9.57533 51.12323 -9.01679 -19.17604 -69.76267 -5.85818 -3.62292 -3.95036 67.15597 23.29591 -4.10827 -37.1705 -16.26194 2.96527 4.17666
-0.09477 -0.18746 0.59653 53.48053 -16.30554 -5.6494 42.2466 7.57118 25.79497 2.32834 -7.41844 -2.11994 95.71558 0.09404 48.91863 49.72123 130.65195 -45.09109 -9.92958 99.50281 36.74762 -49.17197 67.78169 -127.41938 -40.22937 9.58421 50.88494 -8.89693 -19.46563 -69.75285 -5.87254 -3.6374 -3.9589 67.20785 23.32505 -3.7927 -37.01868 -16.14173 2.91156 4.14323
-0.09446 -0.18769 0.59762 53.8402 -16.16867 -5.86135 42.00468 7.35267 25.72142 1.82764 -7.86353 -2.11994 95.60076 -0.73479 48.44254 50.83465 129.90553 -44.10128 -9.84716 99.95109 36.54096 -49.19254 68.23134 -127.52489 -40.33033 9.59651 50.67798 -8.756 -19.74661 -69.73317 -5.88551 -3.65038 -3.96644 67.25337 23.35178 -3.62983 -36.85538 -16.05098 2.86782 4.11636
-0.094 -0.18776 0.59887 54.02868 -16.085 -6.08003 41.79099 7.16413 25.77569 1.37124 -8.17528 -2.11994 95.84055 -1.25952 48.3677 51.23249 129.6334 -43.7723 -9.79827 100.39462 36.41738 -49.1992 68.4646 -127.58406 -40.25543 9.61878 50.55165 -8.57388 -20.01022 -69.69226 -5.89372 -3.65832 -3.97066 67.27607 23.36276 -3.89905 -36.67031 -16.04339 2.85363 4.10872
-0.09349 -0.18777 0.60019 54.15299 -16.02295 -6.30292 41.58895 6.98706 25.87443 0.93257 -8.43654 -2.11994 96.20283 -1.67291 48.4413 51.37907 129.51823 -43.6787 -9.75826 100.83493 36.32644 -49.20369 68.62064 -127.62788 -40.1262 9.64438 50.45676 -8.37173 -20.26473 -69.64013 -5.90038 -3.6646 -3.9738 67.29098 23.37133 -4.32264 -36.47336 -16.06599 2.84986 4.1079
-0.093 -0.18779 0.60147 54.30305 -15.95335 -6.52443 41.38455 6.80606 25.95139 0.49203 -8.7162 -2.11994 96.49926 -2.12945 48.44471 51.64683 129.32727 -43.48232 -9.713 101.27254 36.22004 -49.20971 68.80685 -127.67964 -40.03201 9.66742 50.34859 -8.17657 -20.5221 -69.58892 -5.90764 -3.67154 -3.97739 67.30832 23.38354 -4.67511 -36.27831 -16.07539 2.84153 4.10409
-0.09251 -0.18789 0.60279 54.46857 -15.87415 -6.74511 41.16693 6.61935 26.03427 0.02253 -9.01673 -2.11994 96.83925 -2.6221 48.46165 51.88896 129.14643 -43.263 -9.67103 101.72815 36.11711 -49.21223 69.01831 -127.72845 -39.89447 9.69418 50.23668 -7.98795 -20.78466 -69.55546 -5.91547 -3.67902 -3.98123 67.33159 23.38569 -5.03211 -36.09743 -16.08237 2.83213 4.09961
